<?xml version="1.0" encoding="UTF-8" standalone="no"?>
<!-- Created with Inkscape (http://www.inkscape.org/) -->

<svg
   xmlns:dc="http://purl.org/dc/elements/1.1/"
   xmlns:cc="http://creativecommons.org/ns#"
   xmlns:rdf="http://www.w3.org/1999/02/22-rdf-syntax-ns#"
   xmlns:svg="http://www.w3.org/2000/svg"
   xmlns="http://www.w3.org/2000/svg"
   xmlns:sodipodi="http://sodipodi.sourceforge.net/DTD/sodipodi-0.dtd"
   xmlns:inkscape="http://www.inkscape.org/namespaces/inkscape"
   width="60.236217"
   height="931.88977"
   id="svg2"
   version="1.1"
   inkscape:version="0.48.2 r9819"
   inkscape:export-filename="C:\Users\tomo\Desktop\bitmap3.png"
   inkscape:export-xdpi="300"
   inkscape:export-ydpi="300"
   sodipodi:docname="背表紙_テキストパス化.svg">
  <defs
     id="defs4" />
  <sodipodi:namedview
     id="base"
     pagecolor="#000000"
     bordercolor="#666666"
     borderopacity="1.0"
     inkscape:pageopacity="0.67843137"
     inkscape:pageshadow="2"
     inkscape:zoom="8"
     inkscape:cx="41.856347"
     inkscape:cy="718.88055"
     inkscape:document-units="mm"
     inkscape:current-layer="layer1"
     showgrid="true"
     units="mm"
     height="263mm"
     inkscape:window-width="1428"
     inkscape:window-height="1082"
     inkscape:window-x="209"
     inkscape:window-y="98"
     inkscape:window-maximized="0"
     showguides="false"
     inkscape:snap-global="false">
    <inkscape:grid
       empspacing="5"
       visible="true"
       enabled="true"
       snapvisiblegridlinesonly="true"
       units="mm"
       spacingx="1mm"
       spacingy="1mm"
       type="xygrid"
       id="grid2985" />
  </sodipodi:namedview>
  <metadata
     id="metadata7">
    <rdf:RDF>
      <cc:Work
         rdf:about="">
        <dc:format>image/svg+xml</dc:format>
        <dc:type
           rdf:resource="http://purl.org/dc/dcmitype/StillImage" />
        <dc:title></dc:title>
      </cc:Work>
    </rdf:RDF>
  </metadata>
  <g
     inkscape:label="レイヤー 1"
     inkscape:groupmode="layer"
     id="layer1"
     transform="translate(0,-120.47248)">
    <rect
       style="fill:#0000b8;fill-opacity:1"
       id="rect3016"
       width="59.962334"
       height="931.94421"
       x="0.19930124"
       y="120.45694" />
    <path
       inkscape:connector-curvature="0"
       id="path4072"
       style="font-size:38.98555374px;font-style:normal;font-variant:normal;font-weight:normal;font-stretch:normal;text-align:center;line-height:125%;letter-spacing:0px;word-spacing:0px;writing-mode:tb-rl;text-anchor:middle;fill:#ffffff;fill-opacity:1;stroke:none;font-family:MS PGothic;-inkscape-font-specification:MS PGothic"
       d="m 27.716538,218.83205 c -0.406114,1.21833 -0.913738,2.38586 -1.522874,3.50261 l 10.203251,0 1.67516,-0.60915 1.979735,1.97973 c 0.406072,0.50765 0.203023,0.91375 -0.609149,1.2183 -0.812225,4.06102 -2.030522,7.76667 -3.654895,11.11698 l 3.654895,2.43659 -2.28431,3.35033 -3.350321,-2.4366 c -2.944239,4.26405 -7.157517,7.76665 -12.639847,10.50782 l -3.502608,-2.58888 c 6.091481,-2.53812 10.457047,-5.88844 13.096709,-10.05096 -2.538137,-1.62439 -5.025494,-3.0965 -7.462079,-4.41634 l 1.827448,-2.74117 c 3.147256,1.42137 5.736138,2.74119 7.766653,3.95947 1.522852,-3.14725 2.436575,-5.93918 2.741172,-8.3758 l -11.116974,0 c -1.928983,3.45186 -4.314815,6.59913 -7.157504,9.44181 l -2.893459,-1.97973 c 5.177762,-5.3808 8.578842,-11.06619 10.20325,-17.05618 l 3.654896,1.52287 c 0.812183,0.40613 0.609133,0.81223 -0.609149,1.2183 z" />
    <path
       inkscape:connector-curvature="0"
       id="path4074"
       style="font-size:38.98555374px;font-style:normal;font-variant:normal;font-weight:normal;font-stretch:normal;text-align:center;line-height:125%;letter-spacing:0px;word-spacing:0px;writing-mode:tb-rl;text-anchor:middle;fill:#ffffff;fill-opacity:1;stroke:none;font-family:MS PGothic;-inkscape-font-specification:MS PGothic"
       d="m 13.934534,275.02607 c 10.6601,-4.46708 18.73132,-10.76162 24.213684,-18.88363 l 2.893459,2.4366 c 0.812169,0.60917 0.456832,1.06603 -1.066011,1.37058 -1.928999,2.53815 -4.416356,5.12703 -7.462079,7.76666 l 0,20.71107 -3.502608,0 0,-17.81761 c -3.553385,2.74118 -7.7159,5.22854 -12.48756,7.46207 z" />
    <path
       inkscape:connector-curvature="0"
       id="path4076"
       style="font-size:38.98555374px;font-style:normal;font-variant:normal;font-weight:normal;font-stretch:normal;text-align:center;line-height:125%;letter-spacing:0px;word-spacing:0px;writing-mode:tb-rl;text-anchor:middle;fill:#ffffff;fill-opacity:1;stroke:none;font-family:MS PGothic;-inkscape-font-specification:MS PGothic"
       d="m 39.386782,299.69662 c 0.812172,2e-5 1.472083,-0.25379 1.979735,-0.76144 0.507595,-0.5076 0.761407,-1.16751 0.761437,-1.97973 -3e-5,-0.81217 -0.253842,-1.47209 -0.761437,-1.97974 -0.507652,-0.50759 -1.167563,-0.76141 -1.979735,-0.76144 -0.812225,3e-5 -1.472136,0.25385 -1.979735,0.76144 -0.507649,0.50765 -0.761461,1.16757 -0.761437,1.97974 -2.4e-5,0.81222 0.253788,1.47213 0.761437,1.97973 0.507599,0.50765 1.16751,0.76146 1.979735,0.76144 z m 0,1.52287 c -1.218324,2e-5 -2.233572,-0.40608 -3.045747,-1.2183 -0.812221,-0.81217 -1.21832,-1.82742 -1.218298,-3.04574 -2.2e-5,-1.21827 0.406077,-2.23352 1.218298,-3.04575 0.812175,-0.81217 1.827423,-1.21827 3.045747,-1.2183 1.218271,3e-5 2.233518,0.40613 3.045746,1.2183 0.812169,0.81223 1.218268,1.82748 1.218299,3.04575 -3.1e-5,1.21832 -0.40613,2.23357 -1.218299,3.04574 -0.812228,0.81222 -1.827475,1.21832 -3.045746,1.2183 z m -0.152288,5.02548 c 0.507598,0.91374 0.05074,1.06603 -1.370585,0.45686 -5.685413,1.52289 -11.675375,2.69043 -17.969904,3.50261 l 0,9.89868 c -7e-6,1.31982 0.659904,1.97974 1.979735,1.97973 l 17.513042,0 -0.304575,3.35032 -17.817616,0 c -3.248801,0 -4.873198,-1.31982 -4.873194,-3.95947 l 0,-23.90911 3.045746,0 c 1.116766,0.20308 1.269053,0.60918 0.456862,1.2183 l 0,7.76666 c 6.903678,-0.81218 12.944402,-2.08124 18.122191,-3.80719 z" />
    <path
       inkscape:connector-curvature="0"
       id="path4078"
       style="font-size:38.98555374px;font-style:normal;font-variant:normal;font-weight:normal;font-stretch:normal;text-align:center;line-height:125%;letter-spacing:0px;word-spacing:0px;writing-mode:tb-rl;text-anchor:middle;fill:#ffffff;fill-opacity:1;stroke:none;font-family:MS PGothic;-inkscape-font-specification:MS PGothic"
       d="M 44.564551,346.44882 C 39.183706,357.61656 30.148,363.505 17.457408,364.11415 c -0.507629,1.31982 -1.015253,1.42135 -1.522873,0.30457 l -1.218299,-3.95947 c 13.198219,-0.30457 22.081637,-5.73614 26.650281,-16.29474 z m -21.472512,0 c -2.74118,-2.5381 -5.330061,-4.61936 -7.766654,-6.24378 l 2.588885,-3.19803 c 2.132015,1.31985 4.822422,3.50263 8.071228,6.54835 l -2.893459,2.89346 z" />
    <path
       inkscape:connector-curvature="0"
       id="path4080"
       style="font-size:38.98555374px;font-style:normal;font-variant:normal;font-weight:normal;font-stretch:normal;text-align:center;line-height:125%;letter-spacing:0px;word-spacing:0px;writing-mode:tb-rl;text-anchor:middle;fill:#ffffff;fill-opacity:1;stroke:none;font-family:MS PGothic;-inkscape-font-specification:MS PGothic"
       d="m 39.691357,382.23634 c -1.928999,11.06622 -8.274298,18.98515 -19.035915,23.75682 L 17.91427,403.0997 c 9.949422,-4.06099 15.939384,-11.0662 17.969904,-21.01565 l -12.182986,0 c -2.335082,3.85796 -4.771677,6.95447 -7.309791,9.28953 l -3.045747,-1.97974 c 5.279287,-4.77165 8.680367,-10.35551 10.203251,-16.7516 l 3.502608,1.21829 c 0.609133,0.30461 0.507608,0.60918 -0.304574,0.91373 -0.406115,1.31985 -0.964501,2.63967 -1.675161,3.95947 l 10.964687,0 1.370586,-0.76144 2.741172,2.74117 c 0.710644,0.7107 0.558357,1.21832 -0.456862,1.52288 z m 0.913724,-3.6549 c -1.624426,-2.33504 -3.19806,-4.11173 -4.720907,-5.33006 l 1.979735,-1.67516 c 1.725895,1.52291 3.350291,3.29959 4.873194,5.33006 l -2.132022,1.67516 z m 4.416332,-1.82745 c -1.62443,-2.03047 -3.09654,-3.65486 -4.416332,-4.87319 l 1.827447,-1.82745 c 1.522841,1.42138 2.99495,3.04578 4.416333,4.87319 l -1.827448,1.82745 z" />
    <g
       transform="matrix(0,1,-1,0,-4,0)"
       style="font-size:47.43602371px;font-style:normal;font-variant:normal;font-weight:normal;font-stretch:normal;line-height:125%;letter-spacing:0px;word-spacing:0px;fill:#ffffff;fill-opacity:1;stroke:none;font-family:Serif;-inkscape-font-specification:Serif"
       id="text3789">
      <path
         d="m 425.14545,-32.424482 0,9.149037 c -10e-6,1.976505 0.21617,3.204096 0.64854,3.682778 0.58676,0.679423 1.47464,1.019134 2.66364,1.019133 l 1.20443,0 0,0.856998 -13.45719,0 0,-0.856998 1.18127,0 c 1.32796,10e-7 2.2776,-0.432358 2.84894,-1.297079 0.30882,-0.478681 0.46324,-1.613624 0.46324,-3.404832 l 0,-20.290018 c 0,-1.976473 -0.20846,-3.204064 -0.62538,-3.682777 -0.60221,-0.679392 -1.49782,-1.019103 -2.6868,-1.019133 l -1.18127,0 0,-0.856999 11.51157,0 c 2.81033,3.2e-5 5.02617,0.289558 6.64753,0.86858 1.62133,0.579083 2.9879,1.555751 4.0997,2.930008 1.11176,1.374312 1.66765,3.00338 1.66767,4.887208 -2e-5,2.563295 -0.84544,4.647883 -2.53625,6.253772 -1.69086,1.605922 -4.08041,2.408875 -7.16868,2.408861 -0.75664,1.4e-5 -1.57503,-0.05403 -2.45518,-0.162135 -0.88017,-0.108075 -1.8221,-0.27021 -2.82578,-0.486404 z m 0,-1.320241 c 0.81838,0.15443 1.54413,0.27024 2.17724,0.347432 0.63308,0.07722 1.17353,0.115826 1.62135,0.11581 1.60589,1.6e-5 2.99175,-0.621501 4.1576,-1.864551 1.16581,-1.243015 1.74872,-2.852781 1.74874,-4.829302 -2e-5,-1.358821 -0.27797,-2.621155 -0.83384,-3.787007 -0.55591,-1.165799 -1.34342,-2.038238 -2.36253,-2.617319 -1.01915,-0.579024 -2.17726,-0.86855 -3.47432,-0.86858 -0.78753,3e-5 -1.79894,0.146723 -3.03424,0.440081 z"
         id="path4083"
         inkscape:connector-curvature="0" />
      <path
         d="m 449.512,-39.558416 0,4.771397 c 1.77575,-3.180911 3.59784,-4.771375 5.46626,-4.771397 0.84926,2.2e-5 1.55185,0.258666 2.10775,0.775931 0.55588,0.517308 0.83382,1.115663 0.83384,1.795065 -2e-5,0.602234 -0.20075,1.1118 -0.60222,1.5287 -0.40149,0.416935 -0.88017,0.625394 -1.43605,0.625377 -0.54046,1.7e-5 -1.14653,-0.266347 -1.81822,-0.799093 -0.67172,-0.53271 -1.1697,-0.799075 -1.49396,-0.799093 -0.27796,1.8e-5 -0.57906,0.154432 -0.90332,0.463242 -0.69488,0.633116 -1.4129,1.67541 -2.15408,3.126886 l 0,10.168172 c -10e-6,1.173551 0.14669,2.061431 0.44008,2.663643 0.20073,0.416921 0.55588,0.764352 1.06546,1.042296 0.50955,0.277946 1.24302,0.416919 2.2004,0.416918 l 0,0.833836 -10.86304,0 0,-0.833836 c 1.0809,1e-6 1.88385,-0.169854 2.40887,-0.509567 0.38603,-0.247061 0.65625,-0.640816 0.81067,-1.181268 0.0772,-0.262501 0.11581,-1.011409 0.11581,-2.246725 l 0,-8.222553 c 0,-2.470611 -0.0502,-3.941404 -0.15055,-4.412384 -0.10038,-0.470946 -0.28567,-0.814517 -0.55589,-1.030715 -0.27023,-0.216161 -0.60608,-0.324251 -1.00756,-0.32427 -0.47868,1.9e-5 -1.01913,0.11583 -1.62135,0.347432 l -0.23162,-0.833836 6.41591,-2.594158 z"
         id="path4085"
         inkscape:connector-curvature="0" />
      <path
         d="m 469.52407,-39.558416 c 3.2118,2.2e-5 5.79051,1.219893 7.73615,3.659615 1.65221,2.084607 2.47832,4.478024 2.47835,7.180258 -3e-5,1.899303 -0.45555,3.821757 -1.36657,5.767368 -0.91106,1.945622 -2.16567,3.412554 -3.76384,4.400803 -1.5982,0.98825 -3.37783,1.482375 -5.33887,1.482376 -3.19638,-10e-7 -5.73649,-1.273916 -7.62034,-3.82175 -1.59047,-2.146351 -2.3857,-4.55521 -2.3857,-7.226582 0,-1.945606 0.48254,-3.879641 1.44763,-5.802111 0.96509,-1.922438 2.23514,-3.343047 3.81017,-4.26183 1.57502,-0.918743 3.24269,-1.378125 5.00302,-1.378147 z m -0.71802,1.505538 c -0.81841,2.1e-5 -1.64066,0.243223 -2.46677,0.729607 -0.82612,0.486424 -1.49396,1.339561 -2.00352,2.559414 -0.50958,1.219888 -0.76436,2.78719 -0.76435,4.701911 -1e-5,3.088292 0.61379,5.751933 1.84139,7.990932 1.22758,2.239007 2.84507,3.358508 4.85246,3.358507 1.4978,10e-7 2.73311,-0.617655 3.70594,-1.852969 0.97279,-1.235309 1.45919,-3.358502 1.45921,-6.369584 -2e-5,-3.767692 -0.81069,-6.73244 -2.43202,-8.894254 -1.09635,-1.482356 -2.4938,-2.223543 -4.19234,-2.223564 z"
         id="path4087"
         inkscape:connector-curvature="0" />
      <path
         d="m 491.15749,-37.265366 0,13.943597 c -10e-6,1.976505 0.21617,3.227258 0.64854,3.752264 0.57133,0.679423 1.33567,1.019134 2.29305,1.019133 l 1.92246,0 0,0.833836 -12.66968,0 0,-0.833836 0.94965,0 c 0.61765,1e-6 1.18126,-0.154413 1.69083,-0.463242 0.50956,-0.308827 0.86085,-0.725745 1.05388,-1.250755 0.19301,-0.525005 0.28952,-1.544137 0.28952,-3.0574 l 0,-13.943597 -4.12285,0 0,-1.667672 4.12285,0 0,-1.389728 c 0,-2.115449 0.33971,-3.906651 1.01914,-5.373612 0.67941,-1.466905 1.71785,-2.652032 3.1153,-3.555385 1.39744,-0.903291 2.9686,-1.354951 4.71349,-1.354984 1.62134,3.3e-5 3.11143,0.52504 4.47029,1.575024 0.89559,0.694894 1.34339,1.474685 1.34341,2.339374 -2e-5,0.463271 -0.20076,0.899491 -0.60222,1.30866 -0.40149,0.409225 -0.83385,0.613823 -1.29708,0.613796 -0.35517,2.7e-5 -0.72962,-0.127364 -1.12336,-0.382175 -0.39377,-0.254755 -0.87632,-0.802925 -1.44763,-1.64451 -0.57135,-0.841528 -1.09636,-1.408999 -1.57503,-1.702416 -0.47869,-0.293356 -1.01142,-0.440049 -1.59818,-0.440081 -0.71032,3.2e-5 -1.31253,0.189189 -1.80665,0.567472 -0.49413,0.378345 -0.84929,0.965118 -1.06546,1.760322 -0.21619,0.79526 -0.32428,2.845106 -0.32427,6.149543 l 0,1.5287 5.46627,0 0,1.667672 z"
         id="path4089"
         inkscape:connector-curvature="0" />
      <path
         d="m 502.27531,-30.942107 c -0.0154,3.150059 0.7489,5.620683 2.29305,7.411879 1.54413,1.791208 3.3585,2.686809 5.4431,2.686806 1.38971,3e-6 2.598,-0.382171 3.62487,-1.146525 1.02684,-0.764345 1.88769,-2.073003 2.58258,-3.925979 l 0.71802,0.463242 c -0.32429,2.115479 -1.26621,4.041794 -2.82578,5.778949 -1.55959,1.73716 -3.51293,2.605738 -5.86001,2.605739 -2.54784,-10e-7 -4.72894,-0.992111 -6.5433,-2.976333 -1.81437,-1.984217 -2.72155,-4.651719 -2.72155,-8.002513 0,-3.628718 0.93034,-6.458354 2.79103,-8.488917 1.86069,-2.030525 4.1962,-3.045797 7.00655,-3.045819 2.37796,2.2e-5 4.3313,0.783673 5.86001,2.350956 1.52868,1.567321 2.29303,3.663491 2.29305,6.288515 z m 0,-1.343403 9.82074,0 c -0.0772,-1.358828 -0.23936,-2.316195 -0.48641,-2.872103 -0.38604,-0.864701 -0.96124,-1.544122 -1.72557,-2.038266 -0.76437,-0.494106 -1.56346,-0.741168 -2.39728,-0.741188 -1.28165,2e-5 -2.42817,0.498005 -3.43958,1.493957 -1.01142,0.995989 -1.60205,2.381854 -1.7719,4.1576 z"
         id="path4091"
         inkscape:connector-curvature="0" />
      <path
         d="m 533.45152,-39.558416 0,7.226582 -0.76435,0 c -0.58678,-2.269871 -1.33955,-3.814011 -2.2583,-4.632424 -0.91878,-0.818375 -2.08847,-1.227572 -3.50907,-1.227592 -1.0809,2e-5 -1.95334,0.285686 -2.61731,0.856998 -0.66399,0.571351 -0.99598,1.204449 -0.99598,1.899294 0,0.864736 0.24706,1.605923 0.74119,2.223564 0.47868,0.633112 1.45149,1.304813 2.91843,2.015104 l 3.38167,1.644511 c 3.13459,1.52871 4.70189,3.543812 4.70191,6.045313 -2e-5,1.930181 -0.72962,3.485902 -2.18882,4.667168 -1.45923,1.181268 -3.09216,1.771901 -4.89879,1.771902 -1.29709,-10e-7 -2.77946,-0.231622 -4.44713,-0.694864 -0.50957,-0.154414 -0.92649,-0.231621 -1.25075,-0.231621 -0.35516,0 -0.6331,0.200738 -0.83384,0.602215 l -0.76435,0 0,-7.574013 0.76435,0 c 0.43236,2.161803 1.25847,3.79087 2.47835,4.887207 1.21986,1.096342 2.58643,1.644511 4.09969,1.644511 1.06545,0 1.93403,-0.312688 2.60574,-0.938066 0.67169,-0.625375 1.00754,-1.378143 1.00756,-2.258307 -2e-5,-1.065453 -0.37447,-1.961054 -1.12337,-2.686806 -0.74892,-0.725739 -2.24287,-1.644502 -4.48187,-2.756292 -2.23901,-1.111772 -3.70594,-2.115463 -4.4008,-3.011076 -0.69487,-0.880148 -1.0423,-1.991928 -1.0423,-3.335346 0,-1.744862 0.59836,-3.204074 1.79507,-4.37764 1.1967,-1.173527 2.7447,-1.7603 4.644,-1.760322 0.83383,2.2e-5 1.84524,0.177598 3.03424,0.532729 0.7875,0.231642 1.31251,0.347453 1.57503,0.347432 0.24704,2.1e-5 0.44006,-0.05402 0.57905,-0.162135 0.13896,-0.108069 0.30109,-0.34741 0.4864,-0.718026 z"
         id="path4093"
         inkscape:connector-curvature="0" />
      <path
         d="m 551.88857,-39.558416 0,7.226582 -0.76435,0 c -0.58678,-2.269871 -1.33955,-3.814011 -2.2583,-4.632424 -0.91878,-0.818375 -2.08847,-1.227572 -3.50907,-1.227592 -1.0809,2e-5 -1.95334,0.285686 -2.61731,0.856998 -0.66399,0.571351 -0.99598,1.204449 -0.99598,1.899294 0,0.864736 0.24706,1.605923 0.74119,2.223564 0.47868,0.633112 1.45149,1.304813 2.91843,2.015104 l 3.38167,1.644511 c 3.13459,1.52871 4.70189,3.543812 4.70191,6.045313 -2e-5,1.930181 -0.72962,3.485902 -2.18882,4.667168 -1.45923,1.181268 -3.09216,1.771901 -4.89879,1.771902 -1.29709,-10e-7 -2.77946,-0.231622 -4.44713,-0.694864 -0.50957,-0.154414 -0.92649,-0.231621 -1.25075,-0.231621 -0.35516,0 -0.6331,0.200738 -0.83384,0.602215 l -0.76435,0 0,-7.574013 0.76435,0 c 0.43236,2.161803 1.25847,3.79087 2.47835,4.887207 1.21986,1.096342 2.58643,1.644511 4.09969,1.644511 1.06545,0 1.93403,-0.312688 2.60574,-0.938066 0.67169,-0.625375 1.00754,-1.378143 1.00756,-2.258307 -2e-5,-1.065453 -0.37447,-1.961054 -1.12337,-2.686806 -0.74892,-0.725739 -2.24287,-1.644502 -4.48187,-2.756292 -2.23901,-1.111772 -3.70594,-2.115463 -4.4008,-3.011076 -0.69487,-0.880148 -1.0423,-1.991928 -1.0423,-3.335346 0,-1.744862 0.59836,-3.204074 1.79507,-4.37764 1.1967,-1.173527 2.7447,-1.7603 4.644,-1.760322 0.83383,2.2e-5 1.84524,0.177598 3.03424,0.532729 0.7875,0.231642 1.31251,0.347453 1.57503,0.347432 0.24704,2.1e-5 0.44006,-0.05402 0.57905,-0.162135 0.13896,-0.108069 0.30109,-0.34741 0.4864,-0.718026 z"
         id="path4095"
         inkscape:connector-curvature="0" />
      <path
         d="m 562.01042,-50.653072 c 0.64853,3.3e-5 1.20056,0.227794 1.65609,0.683283 0.45552,0.455554 0.68328,1.007584 0.68329,1.656092 -10e-6,0.648569 -0.22777,1.204459 -0.68329,1.667672 -0.45553,0.463271 -1.00756,0.694892 -1.65609,0.694864 -0.64854,2.8e-5 -1.20443,-0.231593 -1.66767,-0.694864 -0.46325,-0.463213 -0.69487,-1.019103 -0.69487,-1.667672 0,-0.648508 0.22776,-1.200538 0.68329,-1.656092 0.45551,-0.455489 1.01526,-0.68325 1.67925,-0.683283 z m 1.92246,11.094656 0,17.047321 c -10e-6,1.327965 0.0965,2.211986 0.28952,2.652063 0.19301,0.440082 0.47868,0.768212 0.857,0.98439 0.37831,0.216181 1.06931,0.324271 2.07301,0.32427 l 0,0.833836 -10.30714,0 0,-0.833836 c 1.03457,1e-6 1.72943,-0.100368 2.08459,-0.301107 0.35515,-0.200738 0.63695,-0.532728 0.84542,-0.995972 0.20845,-0.46324 0.31268,-1.35112 0.31269,-2.663644 l 0,-8.176228 c -1e-5,-2.300756 -0.0695,-3.790851 -0.20846,-4.47029 -0.1081,-0.494107 -0.27795,-0.837678 -0.50957,-1.030714 -0.23163,-0.192999 -0.54817,-0.289508 -0.94965,-0.289527 -0.43236,1.9e-5 -0.95737,0.11583 -1.57502,0.347432 l -0.32427,-0.833836 6.39274,-2.594158 z"
         id="path4097"
         inkscape:connector-curvature="0" />
      <path
         d="m 580.14636,-39.558416 c 3.2118,2.2e-5 5.79051,1.219893 7.73615,3.659615 1.65221,2.084607 2.47832,4.478024 2.47834,7.180258 -2e-5,1.899303 -0.45554,3.821757 -1.36656,5.767368 -0.91106,1.945622 -2.16568,3.412554 -3.76385,4.400803 -1.5982,0.98825 -3.37782,1.482375 -5.33886,1.482376 -3.19638,-10e-7 -5.7365,-1.273916 -7.62034,-3.82175 -1.59047,-2.146351 -2.3857,-4.55521 -2.3857,-7.226582 0,-1.945606 0.48254,-3.879641 1.44763,-5.802111 0.96509,-1.922438 2.23514,-3.343047 3.81017,-4.26183 1.57502,-0.918743 3.24269,-1.378125 5.00302,-1.378147 z m -0.71803,1.505538 c -0.8184,2.1e-5 -1.64066,0.243223 -2.46676,0.729607 -0.82613,0.486424 -1.49397,1.339561 -2.00353,2.559414 -0.50957,1.219888 -0.76435,2.78719 -0.76435,4.701911 0,3.088292 0.61379,5.751933 1.84139,7.990932 1.22759,2.239007 2.84507,3.358508 4.85247,3.358507 1.4978,10e-7 2.73311,-0.617655 3.70594,-1.852969 0.97279,-1.235309 1.45919,-3.358502 1.45921,-6.369584 -2e-5,-3.767692 -0.81069,-6.73244 -2.43202,-8.894254 -1.09636,-1.482356 -2.4938,-2.223543 -4.19235,-2.223564 z"
         id="path4099"
         inkscape:connector-curvature="0" />
      <path
         d="m 599.67203,-35.064964 c 2.48606,-2.995614 4.85632,-4.49343 7.11077,-4.493452 1.15809,2.2e-5 2.15406,0.289548 2.98792,0.86858 0.83382,0.579073 1.4978,1.53258 1.99194,2.860522 0.33969,0.926502 0.50955,2.347111 0.50957,4.26183 l 0,9.056389 c -2e-5,1.343407 0.10807,2.254449 0.32427,2.733131 0.16983,0.386037 0.44392,0.687144 0.82225,0.903322 0.37829,0.216181 1.07702,0.324271 2.09617,0.32427 l 0,0.833836 -10.49244,0 0,-0.833836 0.44008,0 c 0.98824,1e-6 1.67924,-0.150553 2.07301,-0.451661 0.39374,-0.301106 0.66783,-0.745046 0.82226,-1.331822 0.0617,-0.231619 0.0926,-0.957364 0.0926,-2.17724 l 0,-8.685795 c -2e-5,-1.930161 -0.25094,-3.331468 -0.75277,-4.203925 -0.50186,-0.872421 -1.34728,-1.308641 -2.53625,-1.30866 -1.83754,1.9e-5 -3.66735,1.00371 -5.48943,3.011076 l 0,11.187304 c 0,1.436055 0.0849,2.323936 0.25479,2.663644 0.21617,0.447803 0.51342,0.775933 0.89174,0.98439 0.3783,0.20846 1.14651,0.31269 2.30463,0.312689 l 0,0.833836 -10.49244,0 0,-0.833836 0.46324,0 c 1.0809,1e-6 1.8105,-0.274084 2.18882,-0.822255 0.37831,-0.548168 0.56747,-1.594323 0.56747,-3.138468 l 0,-7.875121 c 0,-2.547818 -0.0579,-4.099678 -0.17371,-4.655586 -0.11582,-0.555873 -0.29339,-0.934187 -0.53273,-1.134944 -0.23935,-0.20072 -0.55976,-0.301089 -0.96123,-0.301108 -0.43236,1.9e-5 -0.94965,0.11583 -1.55186,0.347432 l -0.34743,-0.833836 6.39274,-2.594158 0.99597,0 z"
         id="path4101"
         inkscape:connector-curvature="0" />
      <path
         d="m 629.22689,-20.773936 c -2.17725,1.683116 -3.54381,2.655924 -4.0997,2.918428 -0.83384,0.386035 -1.72172,0.579052 -2.66364,0.579053 -1.46694,-1e-6 -2.67523,-0.501846 -3.62487,-1.505538 -0.94965,-1.00369 -1.42447,-2.32393 -1.42447,-3.960723 0,-1.034568 0.23162,-1.93017 0.69486,-2.686806 0.6331,-1.050007 1.7333,-2.038257 3.3006,-2.964751 1.5673,-0.926474 4.17304,-2.053696 7.81722,-3.38167 l 0,-0.833836 c -10e-6,-2.115457 -0.33586,-3.566949 -1.00755,-4.354479 -0.67172,-0.787492 -1.64838,-1.181248 -2.93001,-1.181268 -0.97282,2e-5 -1.74489,0.262524 -2.31621,0.787512 -0.58678,0.525027 -0.88017,1.127242 -0.88016,1.806645 l 0.0463,1.343403 c -1e-5,0.710321 -0.18144,1.258491 -0.54431,1.644511 -0.36288,0.38605 -0.8377,0.579067 -1.42447,0.579053 -0.57134,1.4e-5 -1.03844,-0.200724 -1.40131,-0.602215 -0.36287,-0.401462 -0.54431,-0.949631 -0.54431,-1.644511 0,-1.327944 0.67942,-2.547814 2.03827,-3.659615 1.35884,-1.11176 3.26585,-1.667651 5.72104,-1.667673 1.88384,2.2e-5 3.42798,0.316571 4.63243,0.949647 0.91102,0.478705 1.58273,1.227612 2.0151,2.246726 0.27793,0.663999 0.4169,2.022842 0.41692,4.076533 l 0,7.20342 c -2e-5,2.022831 0.0386,3.262003 0.11581,3.71752 0.0772,0.455525 0.20458,0.760493 0.38218,0.914904 0.17755,0.154417 0.38215,0.231624 0.61379,0.231621 0.24705,3e-6 0.46323,-0.05404 0.64854,-0.162134 0.32425,-0.200736 0.94963,-0.764347 1.87613,-1.690835 l 0,1.297078 c -1.72945,2.316213 -3.38168,3.474318 -4.95669,3.474319 -0.75665,-10e-7 -1.35886,-0.262505 -1.80665,-0.787513 -0.44781,-0.525007 -0.67943,-1.420608 -0.69486,-2.686806 z m 0,-1.505537 0,-8.083581 c -2.33166,0.926497 -3.8372,1.582756 -4.51661,1.968781 -1.21988,0.679432 -2.09232,1.389736 -2.61732,2.130915 -0.52502,0.741195 -0.78752,1.551869 -0.78752,2.432023 0,1.111786 0.33199,2.03441 0.99598,2.767873 0.66397,0.73347 1.42832,1.100203 2.29305,1.100201 1.17353,2e-6 2.71767,-0.772068 4.63242,-2.316212 z"
         id="path4103"
         inkscape:connector-curvature="0" />
      <path
         d="m 645.53304,-50.653072 0,28.141977 c -10e-6,1.327965 0.0965,2.208125 0.28952,2.640482 0.19301,0.432361 0.49026,0.760491 0.89174,0.98439 0.40147,0.223902 1.15038,0.335852 2.24673,0.335851 l 0,0.833836 -10.39979,0 0,-0.833836 c 0.9728,1e-6 1.63678,-0.100368 1.99194,-0.301107 0.35515,-0.200738 0.63309,-0.532728 0.83384,-0.995972 0.20073,-0.46324 0.3011,-1.35112 0.3011,-2.663644 l 0,-19.270884 c 0,-2.393393 -0.0541,-3.864186 -0.16213,-4.412384 -0.10809,-0.548141 -0.28181,-0.922595 -0.52115,-1.123363 -0.23934,-0.200709 -0.54431,-0.301078 -0.9149,-0.301108 -0.40148,3e-5 -0.91105,0.123561 -1.5287,0.370594 l -0.39376,-0.810674 6.32326,-2.594158 z"
         id="path4105"
         inkscape:connector-curvature="0" />
      <path
         d="m 665.10503,-39.558416 0,7.226582 -0.76435,0 c -0.58679,-2.269871 -1.33956,-3.814011 -2.25831,-4.632424 -0.91878,-0.818375 -2.08846,-1.227572 -3.50906,-1.227592 -1.08091,2e-5 -1.95335,0.285686 -2.61732,0.856998 -0.66399,0.571351 -0.99598,1.204449 -0.99597,1.899294 -10e-6,0.864736 0.24705,1.605923 0.74119,2.223564 0.47867,0.633112 1.45148,1.304813 2.91842,2.015104 l 3.38167,1.644511 c 3.13459,1.52871 4.7019,3.543812 4.70191,6.045313 -10e-6,1.930181 -0.72962,3.485902 -2.18882,4.667168 -1.45922,1.181268 -3.09215,1.771901 -4.89879,1.771902 -1.29708,-10e-7 -2.77946,-0.231622 -4.44712,-0.694864 -0.50957,-0.154414 -0.92649,-0.231621 -1.25076,-0.231621 -0.35515,0 -0.6331,0.200738 -0.83383,0.602215 l -0.76435,0 0,-7.574013 0.76435,0 c 0.43235,2.161803 1.25847,3.79087 2.47834,4.887207 1.21987,1.096342 2.58643,1.644511 4.0997,1.644511 1.06544,0 1.93402,-0.312688 2.60574,-0.938066 0.67169,-0.625375 1.00754,-1.378143 1.00755,-2.258307 -10e-6,-1.065453 -0.37447,-1.961054 -1.12336,-2.686806 -0.74892,-0.725739 -2.24288,-1.644502 -4.48187,-2.756292 -2.23901,-1.111772 -3.70595,-2.115463 -4.40081,-3.011076 -0.69486,-0.880148 -1.0423,-1.991928 -1.04229,-3.335346 -10e-6,-1.744862 0.59835,-3.204074 1.79506,-4.37764 1.19671,-1.173527 2.74471,-1.7603 4.64401,-1.760322 0.83382,2.2e-5 1.84524,0.177598 3.03423,0.532729 0.7875,0.231642 1.31251,0.347453 1.57503,0.347432 0.24705,2.1e-5 0.44007,-0.05402 0.57905,-0.162135 0.13896,-0.108069 0.3011,-0.34741 0.48641,-0.718026 z"
         id="path4107"
         inkscape:connector-curvature="0" />
    </g>
    <rect
       style="fill:#000000;fill-opacity:1"
       id="rect4049"
       width="59.918671"
       height="107.07463"
       x="0.27949622"
       y="945.35767" />
    <rect
       style="fill:#000000;fill-opacity:1"
       id="rect4049-4"
       width="60.098083"
       height="63.952057"
       x="0.10016653"
       y="120.37921" />
  </g>
</svg>
